<mxfile host="Electron" agent="Mozilla/5.0 (Windows NT 10.0; Win64; x64) AppleWebKit/537.36 (KHTML, like Gecko) draw.io/26.0.4 Chrome/128.0.6613.186 Electron/32.2.5 Safari/537.36" version="26.0.4">
  <diagram name="Page-1" id="DSQu3dRsuzFmGCGjg8ll">
    <mxGraphModel dx="808" dy="478" grid="1" gridSize="10" guides="1" tooltips="1" connect="1" arrows="1" fold="1" page="1" pageScale="1" pageWidth="1654" pageHeight="1169" math="0" shadow="0">
      <root>
        <mxCell id="0" />
        <mxCell id="1" parent="0" />
        <mxCell id="2oSIJr2G-h4TINpckzeT-1" value="" style="ellipse;whiteSpace=wrap;html=1;aspect=fixed;" vertex="1" parent="1">
          <mxGeometry x="400" y="160" width="80" height="80" as="geometry" />
        </mxCell>
        <mxCell id="2oSIJr2G-h4TINpckzeT-7" style="edgeStyle=orthogonalEdgeStyle;rounded=0;orthogonalLoop=1;jettySize=auto;html=1;exitX=1;exitY=0.5;exitDx=0;exitDy=0;entryX=0;entryY=0.5;entryDx=0;entryDy=0;" edge="1" parent="1" source="2oSIJr2G-h4TINpckzeT-2" target="2oSIJr2G-h4TINpckzeT-5">
          <mxGeometry relative="1" as="geometry" />
        </mxCell>
        <mxCell id="2oSIJr2G-h4TINpckzeT-2" value="E-Permutation" style="text;html=1;align=center;verticalAlign=middle;whiteSpace=wrap;rounded=0;" vertex="1" parent="1">
          <mxGeometry x="400" y="185" width="80" height="30" as="geometry" />
        </mxCell>
        <mxCell id="2oSIJr2G-h4TINpckzeT-4" style="edgeStyle=orthogonalEdgeStyle;rounded=0;orthogonalLoop=1;jettySize=auto;html=1;exitX=1;exitY=0.5;exitDx=0;exitDy=0;entryX=0;entryY=0.5;entryDx=0;entryDy=0;" edge="1" parent="1" source="2oSIJr2G-h4TINpckzeT-3" target="2oSIJr2G-h4TINpckzeT-2">
          <mxGeometry relative="1" as="geometry" />
        </mxCell>
        <mxCell id="2oSIJr2G-h4TINpckzeT-3" value="r_input [31:0]" style="text;html=1;align=center;verticalAlign=middle;whiteSpace=wrap;rounded=0;" vertex="1" parent="1">
          <mxGeometry x="280" y="185" width="80" height="30" as="geometry" />
        </mxCell>
        <mxCell id="2oSIJr2G-h4TINpckzeT-13" style="edgeStyle=orthogonalEdgeStyle;rounded=0;orthogonalLoop=1;jettySize=auto;html=1;exitX=1;exitY=0.5;exitDx=0;exitDy=0;" edge="1" parent="1" source="2oSIJr2G-h4TINpckzeT-5">
          <mxGeometry relative="1" as="geometry">
            <mxPoint x="650" y="199.69230769230762" as="targetPoint" />
          </mxGeometry>
        </mxCell>
        <mxCell id="2oSIJr2G-h4TINpckzeT-5" value="re [47:0]" style="text;html=1;align=center;verticalAlign=middle;whiteSpace=wrap;rounded=0;" vertex="1" parent="1">
          <mxGeometry x="520" y="185" width="60" height="30" as="geometry" />
        </mxCell>
        <mxCell id="2oSIJr2G-h4TINpckzeT-14" style="edgeStyle=orthogonalEdgeStyle;rounded=0;orthogonalLoop=1;jettySize=auto;html=1;exitX=1;exitY=0.5;exitDx=0;exitDy=0;" edge="1" parent="1" source="2oSIJr2G-h4TINpckzeT-6">
          <mxGeometry relative="1" as="geometry">
            <mxPoint x="650" y="155.0769230769231" as="targetPoint" />
          </mxGeometry>
        </mxCell>
        <mxCell id="2oSIJr2G-h4TINpckzeT-6" value="round_key [47:0]" style="text;html=1;align=center;verticalAlign=middle;whiteSpace=wrap;rounded=0;" vertex="1" parent="1">
          <mxGeometry x="500" y="140" width="100" height="30" as="geometry" />
        </mxCell>
        <mxCell id="2oSIJr2G-h4TINpckzeT-16" style="edgeStyle=orthogonalEdgeStyle;rounded=0;orthogonalLoop=1;jettySize=auto;html=1;exitX=1;exitY=0.5;exitDx=0;exitDy=0;exitPerimeter=0;entryX=0;entryY=0.5;entryDx=0;entryDy=0;" edge="1" parent="1" source="2oSIJr2G-h4TINpckzeT-9" target="2oSIJr2G-h4TINpckzeT-15">
          <mxGeometry relative="1" as="geometry" />
        </mxCell>
        <mxCell id="2oSIJr2G-h4TINpckzeT-9" value="" style="shape=xor;whiteSpace=wrap;html=1;" vertex="1" parent="1">
          <mxGeometry x="650" y="130" width="60" height="90" as="geometry" />
        </mxCell>
        <mxCell id="2oSIJr2G-h4TINpckzeT-10" value="" style="endArrow=none;html=1;rounded=0;curved=1;" edge="1" parent="1">
          <mxGeometry width="50" height="50" relative="1" as="geometry">
            <mxPoint x="640" y="220" as="sourcePoint" />
            <mxPoint x="640" y="130" as="targetPoint" />
            <Array as="points">
              <mxPoint x="670" y="180" />
            </Array>
          </mxGeometry>
        </mxCell>
        <mxCell id="2oSIJr2G-h4TINpckzeT-15" value="re_xor_key [47:0]" style="text;html=1;align=center;verticalAlign=middle;whiteSpace=wrap;rounded=0;" vertex="1" parent="1">
          <mxGeometry x="772" y="160" width="110" height="30" as="geometry" />
        </mxCell>
      </root>
    </mxGraphModel>
  </diagram>
</mxfile>
